<svg height="64" width="64" viewBox="0 0 64 64">
    <rect height="64" width="64" style="fill: white"/>
    <path fill="none" stroke="black" d="
        M 32,16
        A 8,8 0 1 0 24,24
        A 8,16 0 1 1 16,32
        L 12,32
        M 30,32
        L 34,32
        M 19,54
        L 19,58
        M 27,54
        L 27,58
        M 37,8
        L 27,24
        L 56,26
        A 2,2 0 1 1 56,22
        M 56,26
        A 2,2 0 1 0 56,22
        L 27,24
        M 42,16
        L 48,16
        A 3,3 0 1 0 45,19
        M 54,8
        C 50,12 58,16 54,20
        M 58,8
        C 54,12 62,16 58,20
        M 26,17
        L 26,15
        M 22,17
        L 22,15 
    "/>
</svg>